<svg width="1400" height="900" viewBox="0 0 1400 900" xmlns="http://www.w3.org/2000/svg">
  <defs>
    <linearGradient id="bg3" x1="0" y1="0" x2="1" y2="1">
      <stop offset="0%" stop-color="#05080f"/>
      <stop offset="100%" stop-color="#111827"/>
    </linearGradient>
    <linearGradient id="cy" x1="0" y1="0" x2="1" y2="1">
      <stop offset="0%" stop-color="#22d3ee"/>
      <stop offset="100%" stop-color="#0ea5e9"/>
    </linearGradient>
    <linearGradient id="or" x1="0" y1="0" x2="1" y2="1">
      <stop offset="0%" stop-color="#fb923c"/>
      <stop offset="100%" stop-color="#f97316"/>
    </linearGradient>
  </defs>
  <rect width="1400" height="900" fill="url(#bg3)"/>
  <g opacity="0.14" stroke="#22d3ee">
    <path d="M0 220 H1400"/>
    <path d="M0 300 H1400"/>
    <path d="M0 380 H1400"/>
    <path d="M200 0 V900"/>
    <path d="M380 0 V900"/>
    <path d="M560 0 V900"/>
  </g>
  <g transform="translate(170,150)">
    <polygon points="230,20 410,120 360,360 100,360 50,120" fill="#0b1220" stroke="#22d3ee" stroke-width="6"/>
    <polygon points="230,90 320,300 140,300" fill="url(#cy)"/>
    <circle cx="230" cy="190" r="90" fill="none" stroke="#22d3ee" stroke-width="6" opacity="0.8"/>
    <circle cx="230" cy="190" r="58" fill="none" stroke="#fb923c" stroke-width="5" opacity="0.9"/>
    <circle cx="230" cy="190" r="10" fill="url(#or)"/>
  </g>
  <text x="560" y="390" fill="#e2e8f0" font-family="Segoe UI, Arial, sans-serif" font-size="112" font-weight="800" letter-spacing="10">AURIXA</text>
  <text x="565" y="468" fill="#67e8f9" font-family="Segoe UI, Arial, sans-serif" font-size="31" font-weight="700" letter-spacing="4">REAL-TIME MINING COMMAND</text>
  <text x="565" y="530" fill="#fb923c" font-family="Segoe UI, Arial, sans-serif" font-size="23" font-weight="600" letter-spacing="3">TACTICAL TECH SUITE</text>
</svg>
